<?xml version="1.0" encoding="UTF-8"?><svg id="Calque_1" xmlns="http://www.w3.org/2000/svg" viewBox="0 0 723.34 289.34"><defs><style>.cls-1{fill:#fff;}.cls-2{fill:#f96d68;}</style></defs><g><path class="cls-2" d="m646.85,73.71h-37.25l-12.43,21.4h21.48l-33.99,58.02-14.35-23.38c-.08-.13-.23-.21-.38-.21l-26.19.38,41.48,66,66.43-113.87c2.16-3.7-.51-8.34-4.79-8.34Z"/><path class="cls-2" d="m570.49,199.85c-5.34-2.47-11.67-.13-14.14,5.21-2.47,5.34-.13,11.67,5.21,14.14,5.34,2.47,11.67.13,14.14-5.21,2.47-5.34.13-11.67-5.21-14.14Z"/><path class="cls-2" d="m559.73,171.81l-10.91-17.35-4.08,6.41-24.69-39.84c-.77-1.25.12-2.86,1.59-2.86h50.04l13.17-22h-64.08c-17.97,0-29.09,19.59-19.88,35.02,0,0,44.16,65.09,44.37,64.72l14.48-24.11Z"/></g><g><path class="cls-1" d="m296.14,132.41c-2.24-2.57-5.01-4.92-8.34-7.06-3.49-2.24-8.61-3.36-15.38-3.36-5.73,0-11.14,1.54-16.24,4.61-5.1,3.07-9.21,7.42-12.34,13.04-3.12,5.62-4.68,12.29-4.68,19.99,0,8.23,1.51,14.99,4.53,20.3,3.02,5.31,7.1,9.24,12.26,11.79,5.15,2.55,10.9,3.83,17.26,3.83,4.06,0,7.57-.6,10.54-1.8,2.97-1.2,5.47-2.6,7.5-4.22,2.03-1.61,3.56-3.02,4.61-4.22.06-.07.1-.11.16-.18v8.53h21.86v-68.24h-20.3l-1.42,6.99Zm-4.2,40.72c-1.56,1.51-3.38,2.65-5.47,3.43-2.08.78-4.43,1.17-7.03,1.17-3.23,0-6.22-.83-8.98-2.5-2.76-1.66-4.97-3.96-6.64-6.87-1.67-2.91-2.5-6.19-2.5-9.84s.78-6.87,2.34-9.68c1.56-2.81,3.67-5.02,6.32-6.64,2.65-1.61,5.54-2.42,8.67-2.42,2.81,0,5.36.44,7.65,1.33,2.29.89,4.27,2.14,5.93,3.75,1.66,1.62,2.91,3.57,3.75,5.86v16.71c-1.15,2.29-2.5,4.19-4.06,5.7Z"/><polygon class="cls-1" points="372.57 157.84 356.58 125.42 330.66 125.42 371.57 195.06 372.19 195.06 410.92 125.42 386.56 125.42 372.57 157.84"/><path class="cls-1" d="m488.76,139.94c-3.07-5.52-7.47-9.86-13.19-13.04-5.73-3.17-12.49-4.76-20.3-4.76s-14.52,1.59-20.46,4.76c-5.93,3.18-10.54,7.52-13.82,13.04-3.28,5.52-4.92,11.76-4.92,18.74,0,7.7,1.66,14.31,5,19.83,3.33,5.52,7.94,9.74,13.82,12.65,5.88,2.91,12.57,4.37,20.07,4.37,8.01,0,14.89-1.62,20.61-4.84,5.72-3.23,10.12-7.63,13.19-13.19,3.07-5.57,4.61-11.84,4.61-18.82s-1.54-13.22-4.61-18.74Zm-19.44,28.5c-1.35,2.86-3.28,5.13-5.78,6.79-2.5,1.67-5.47,2.5-8.9,2.5-3.12,0-5.93-.83-8.43-2.5-2.5-1.66-4.48-3.93-5.93-6.79-1.46-2.86-2.19-6.06-2.19-9.6s.73-6.87,2.19-9.68c1.46-2.81,3.44-5.05,5.93-6.71,2.5-1.66,5.31-2.5,8.43-2.5,3.44,0,6.4.83,8.9,2.5,2.5,1.67,4.42,3.9,5.78,6.71,1.35,2.81,2.03,6.04,2.03,9.68s-.68,6.74-2.03,9.6Z"/><path class="cls-1" d="m206.37,125.44l-11.31,27.69-22.25-40.94-28.33-.64,17.37,29.29-7.54,12.29-33.99-58.02-28.33-.64,61.77,101.45,21.39-32.66,19.37,32.66,38.71-70.5s-26.77-.11-26.85.02Z"/></g></svg>